<?xml version="1.0" encoding="UTF-8" standalone="no"?>
<!-- Created with Inkscape (http://www.inkscape.org/) -->

<!-- https://crazydan.org -->

<svg
   width="512"
   height="512"
   viewBox="0 0 135.46667 135.46667"
   version="1.1"
   id="svg11545"
   inkscape:version="1.1.1 (3bf5ae0d25, 2021-09-20)"
   sodipodi:docname="crazydan.svg"
   xmlns:inkscape="http://www.inkscape.org/namespaces/inkscape"
   xmlns:sodipodi="http://sodipodi.sourceforge.net/DTD/sodipodi-0.dtd"
   xmlns:xlink="http://www.w3.org/1999/xlink"
   xmlns="http://www.w3.org/2000/svg"
   xmlns:svg="http://www.w3.org/2000/svg">
  <sodipodi:namedview
     id="namedview11547"
     pagecolor="#ffffff"
     bordercolor="#111111"
     borderopacity="1"
     inkscape:pageshadow="0"
     inkscape:pageopacity="0"
     inkscape:pagecheckerboard="1"
     inkscape:document-units="mm"
     showgrid="false"
     inkscape:zoom="0.70910507"
     inkscape:cx="127.62566"
     inkscape:cy="319.4167"
     inkscape:window-width="1920"
     inkscape:window-height="1052"
     inkscape:window-x="0"
     inkscape:window-y="28"
     inkscape:window-maximized="1"
     inkscape:current-layer="layer1"
     units="px" />
  <defs
     id="defs11542">
    <filter
       inkscape:collect="always"
       style="color-interpolation-filters:sRGB"
       id="filter5888"
       x="-0.12810935"
       width="1.2562187"
       y="-1.0867536"
       height="3.1735071">
      <feGaussianBlur
         inkscape:collect="always"
         stdDeviation="6.3750003"
         id="feGaussianBlur5890" />
    </filter>
    <radialGradient
       inkscape:collect="always"
       xlink:href="#linearGradient5686"
       id="radialGradient5722"
       gradientUnits="userSpaceOnUse"
       gradientTransform="matrix(1.7287635,0,0,2.2901429,-377.49773,-651.25798)"
       cx="324.69617"
       cy="447.85596"
       fx="324.69617"
       fy="447.85596"
       r="106.46809" />
    <linearGradient
       inkscape:collect="always"
       id="linearGradient5686">
      <stop
         style="stop-color:#e7ab75;stop-opacity:1;"
         offset="0"
         id="stop5688" />
      <stop
         style="stop-color:#e7ab75;stop-opacity:0;"
         offset="1"
         id="stop5690" />
    </linearGradient>
    <radialGradient
       inkscape:collect="always"
       xlink:href="#linearGradient5686"
       id="radialGradient5692"
       cx="324.69617"
       cy="447.85596"
       fx="324.69617"
       fy="447.85596"
       r="106.46809"
       gradientTransform="matrix(1.7287635,0,0,2.2969074,-377.49774,-654.39342)"
       gradientUnits="userSpaceOnUse" />
  </defs>
  <g
     inkscape:label="Layer 1"
     inkscape:groupmode="layer"
     id="layer1">
    <g
       id="g31"
       transform="matrix(0.94798138,0,0,0.94798138,19.881219,4.4592536e-8)">
      <g
         id="g11282"
         transform="matrix(0.26458333,0,0,0.26458333,16.630951,-9.3184513)">
        <path
           style="opacity:0.852;fill:#000000;stroke-width:3;filter:url(#filter5888)"
           d="m 412.13452,600.25734 c 0,-3.50212 -27.80751,-6.00411 -60.78698,-6.00411 -32.97948,0 -58.64225,2.50199 -58.64225,6.00411 0,3.50213 32.63318,8.07452 58.64225,8.07452 26.00906,0 60.78698,-4.57239 60.78698,-8.07452 z"
           id="path5707"
           inkscape:connector-curvature="0"
           sodipodi:nodetypes="ssszs"
           transform="matrix(2.3581803,0,0,2.066413,-705.0226,-713.36664)" />
        <g
           id="g9926"
           transform="translate(-54.985399,-88.544096)">
          <g
             id="g9919">
            <path
               style="color:#000000;fill:#c17953;stroke-width:5.23243;-inkscape-stroke:none"
               d="m 367.88329,410.25346 c 0,122.35657 -85.71103,209.77063 -187.36355,209.77063 -101.652517,0 -180.75278677,-87.41406 -180.75278677,-209.77063 0,-56.05221 11.21250977,-124.74997 41.79723977,-177.54386 36.17879,-62.45007 95.513137,-104.56222 138.955547,-104.56222 38.38988,0 90.49905,32.60266 126.54545,84.22029 39.22748,56.17286 60.8181,134.12211 60.8181,197.88579 z"
               id="path43"
               sodipodi:nodetypes="sssssss" />
            <path
               style="color:#000000;fill:#c17953;stroke-width:1.73313;-inkscape-stroke:none"
               d="m 186.57188,123.76344 c -40.80591,0 -92.32643,23.82193 -128.68519,73.26245 -13.64991,18.32484 -20.44813,29.81482 -30.90966,50.14725 -21.58564,41.95264 -34.0677,95.96879 -34.84727,139.49726 -0.0739,34.58118 2.53376,71.69041 19.25564,112.4046 6.39896,15.58009 15.41919,30.9945 25.95178,44.69493 10.50649,13.66649 20.77468,25.98323 32.30388,36.28246 8.04883,7.19016 9.52831,8.84416 22.2899,18.24632 28.87758,21.27569 56.9352,28.6401 94.64092,28.03065 26.2999,-0.4251 49.12671,-1.43667 91.48606,-31.11481 7.65667,-5.36448 15.40354,-12.59833 22.42303,-19.23338 23.90403,-22.59483 34.73223,-37.15324 50.78568,-70.10328 13.02949,-26.74327 20.43768,-54.63809 21.70388,-94.27033 1.22155,-38.23494 2.79601,-57.17915 -12.87652,-108.83177 -9.86167,-32.50151 -19.8887,-56.25554 -39.80921,-86.84709 -16.27699,-24.99626 -32.17035,-45.67145 -55.13645,-62.26084 -26.8387,-19.38673 -55.97547,-29.90441 -78.57647,-29.90442 z m -2.17721,9.94274 c 37.50009,0 86.61371,25.56602 122.33673,81.02345 35.72302,55.45742 55.99344,123.55988 55.99344,184.61072 0,82.10471 -38.07959,154.09001 -92.07905,188.75907 -26.51471,17.02314 -52.63683,29.24684 -84.8656,29.24684 -97.86539,0 -182.13856,-108.36409 -182.13856,-230.88151 0,-61.09975 20.43111,-117.86907 54.54621,-173.31922 34.11509,-55.45013 88.70673,-79.43935 126.20683,-79.43935 z"
               id="path45-6"
               sodipodi:nodetypes="scscsssssssssssssssssssss" />
          </g>
          <path
             style="opacity:0.98;fill:url(#radialGradient5722);stroke-width:5.20992"
             d="m 367.88329,410.25346 c 0,121.30622 -85.71099,207.96992 -187.36351,207.96992 -101.652532,0 -180.752802,-86.6637 -180.752802,-207.96992 0,-60.59605 18.69121,-135.48049 53.88066,-190.16765 45.68502,-70.99807 86.750612,-89.51675 126.872142,-89.51675 34.12951,0 81.66854,22.56322 115.23867,64.89223 45.28357,57.09863 72.12484,145.12926 72.12484,214.79217 z"
             id="path5684"
             inkscape:connector-curvature="0"
             sodipodi:nodetypes="sssssss" />
          <path
             sodipodi:nodetypes="sssssss"
             inkscape:connector-curvature="0"
             id="path5694"
             d="m 367.88329,410.25346 c 1e-5,121.66455 -85.711,208.5842 -187.36352,208.5842 -101.652511,0 -180.752791,-86.91965 -180.752791,-208.5842 0,-72.40133 25.52613,-162.95997 71.26683,-220.3847 31.122801,-39.07283 77.025281,-60.12582 109.485961,-60.12582 32.37582,0 77.27487,16.50258 109.6262,55.40522 47.75567,57.42644 77.73731,152.57518 77.73732,225.1053 z"
             style="fill:url(#radialGradient5692);stroke-width:5.21733;stroke-miterlimit:4;stroke-dasharray:none" />
        </g>
      </g>
      <path
         style="fill:#000000;stroke:none;stroke-width:0.436361"
         d="m 50.534999,79.24053 c 0.842764,0 0.930869,-0.068 2.46565,2.24404 0.898364,1.35343 2.841108,4.23942 3.871446,5.97366 l 15.433384,-0.0665 c 1.92304,-0.10139 2.13514,-0.35995 2.93095,-1.02711 1.45468,-1.21958 2.81205,-3.28188 5.9975,-9.11633 0.96239,-1.76274 2.19074,-3.98689 2.7297,-4.94141 0.8189,-1.53721 0.5196,-1.78555 2.68159,-2.28931 -1.5658,4.53507 -3.56762,9.87881 -4.90823,12.25389 -2.6372,4.67222 -6.83825,9.68126 -15.16215,12.8058 6.47489,-1.31121 8.52565,-3.61351 12.83926,-7.72639 -2.93101,7.06776 -7.01758,13.45694 -10.79635,19.90875 8.49356,-10.55465 16.63797,-22.2541 20.98905,-35.99009 0.75385,-2.69194 1.60948,-6.38284 1.50921,-6.49997 -1.60015,2.09277 -3.54526,4.41606 -7.67297,4.52748 -6.24516,0.16863 -11.05454,-2.05816 -15.56459,-6.04006 -0.4751,0.40451 -1.05268,0.75797 -1.06302,1.58409 -0.009,0.77532 0.71863,1.63029 2.14354,2.57037 2.33974,1.54366 8.34526,3.36754 11.08508,3.36754 0.34697,0 0.62993,0.0381 0.62993,0.0868 0,0.0487 -1.60996,2.44011 -3.57837,5.30934 -3.02095,4.40345 -3.65934,5.24655 -4.09457,5.42177 -1.00992,0.40655 -6.6523,0.13816 -9.68525,-0.45989 -1.45445,-0.28681 -2.10427,-0.60166 -2.88281,-1.40017 -1.41066,-1.68184 -2.48352,-3.75839 -3.923952,-5.36043 -1.597279,0.70412 -3.294066,1.43613 -5.975628,1.47169 -2.092416,0.0278 -4.045936,-0.63108 -5.975616,-1.47169 -1.440433,1.60204 -2.513307,3.67859 -3.923972,5.36043 -0.778533,0.79851 -1.428355,1.11336 -2.882819,1.40017 -3.032941,0.59805 -8.675296,0.86644 -9.685225,0.45989 -0.435244,-0.17522 -1.073619,-1.01832 -4.094583,-5.42177 -1.968399,-2.86923 -3.578371,-5.2606 -3.578371,-5.30934 0,-0.0487 0.28297,-0.0868 0.629938,-0.0868 2.739823,0 8.745323,-1.82388 11.08509,-3.36754 1.424891,-0.94008 2.153208,-1.79505 2.143518,-2.57037 -0.01068,-0.82612 -0.587929,-1.17958 -1.063,-1.58409 -4.51005,3.9819 -9.319426,6.20867 -15.564637,6.04006 -4.127695,-0.11138 -6.072794,-2.43471 -7.6729232,-4.52748 -0.100255,0.11711 0.7553552,3.80803 1.5092142,6.49997 4.351047,13.73599 12.49547,25.43544 20.989044,35.99009 -3.778789,-6.45181 -7.865345,-12.84099 -10.796368,-19.90875 4.313601,4.11288 6.36437,6.41518 12.839279,7.72639 -8.323918,-3.12454 -12.524965,-8.13358 -15.162154,-12.8058 -1.340628,-2.37508 -3.342447,-7.71882 -4.908258,-12.25389 2.16201,0.50376 1.862682,0.7521 2.681624,2.28931 0.538914,0.95452 1.76728,3.17867 2.729705,4.94141 3.185428,5.83445 4.542796,7.89675 5.997489,9.11633 0.795792,0.66716 1.007913,0.92562 2.930947,1.02711 l 15.433373,0.0665 c 1.03035,-1.73424 2.973099,-4.62023 3.871466,-5.97366 1.53477,-2.31213 1.626076,-2.24404 2.468839,-2.24404 z M 24.762979,10.393618 c -5.388654,0.06276 -10.272269,3.615336 -12.734295,13.112375 4.368932,-2.70195 10.005292,-2.645694 14.842823,-0.705193 6.45031,2.587459 11.968197,8.52249 16.736995,16.255066 -0.530551,-4.487605 -2.127439,-9.145796 -3.145287,-11.55381 0.940566,0.178606 2.267057,0.714283 2.852187,-0.127808 0.631926,-0.909359 0.135204,-1.833158 -0.48995,-2.595908 -5.047328,-6.158912 -11.853657,-10.170003 -19.212969,-10.511369 4.754551,-0.256966 10.746608,0.664337 16.076433,3.152905 -4.357955,-4.064832 -9.863847,-7.085298 -14.925937,-7.026313 z m 51.54084,0 c -5.0621,-0.059 -10.56798,2.96148 -14.92595,7.026313 5.32983,-2.488568 11.32189,-3.40987 16.07643,-3.152905 -7.3593,0.341367 -14.16564,4.352456 -19.21296,10.511368 -0.625107,0.762751 -1.121867,1.686549 -0.48996,2.595909 0.58515,0.842036 1.91165,0.306359 2.8522,0.127807 -1.01786,2.408015 -2.61471,7.066206 -3.145287,11.55381 4.768807,-7.732574 10.286687,-13.667605 16.736997,-16.255065 4.83754,-1.940501 10.47392,-1.996758 14.84281,0.705193 -2.46204,-9.497038 -7.34564,-13.049597 -12.73428,-13.112376 z M 27.877666,33.143545 c -2.411152,0.02781 -4.432563,0.445802 -5.958136,1.221297 -3.01289,1.53156 -4.861885,7.407573 -7.56359,7.716178 -2.427066,0.277214 -3.823468,-3.65311 -4.8513562,-5.743699 0.6420232,2.370976 1.7204202,4.809169 3.0840452,6.525539 -1.393137,1.035507 -2.8839792,2.081122 -3.9020542,3.607691 1.8079462,-1.442043 3.6162452,-2.865262 5.3238162,-2.636783 -2.013446,1.291797 -4.8602372,3.088129 -6.2381142,6.009411 2.3961052,-2.752568 5.2917422,-5.254269 8.7796872,-5.033402 1.007608,0.06382 1.310003,0.161139 2.528481,0.83806 3.079298,2.061391 6.448296,2.112318 9.855856,2.069555 v -2.437481 c -2.422428,-0.0072 -4.840232,-0.354395 -7.213617,-0.90959 -0.997904,-0.29636 -2.715515,-1.249088 -3.062162,-1.696531 -0.235788,-0.304309 -0.232675,-0.354147 0.07004,-1.190658 0.785157,-2.170193 2.059484,-3.901251 3.657126,-5.069164 1.953935,-1.42837 4.277543,-1.689505 6.526806,-1.614765 0.0076,1.59e-4 0.01526,-3.39e-4 0.02182,0 V 33.16399 c -0.01069,-4.82e-4 -0.03326,-0.0053 -0.0438,-0.0053 -0.179023,-0.0053 -0.354186,-0.01426 -0.529334,-0.01605 -0.16419,-0.0015 -0.324825,-0.0019 -0.485568,0 v -1.8e-5 z m 44.825883,0 c -0.17512,0.0019 -0.35028,0.0089 -0.52931,0.01605 -0.0108,3.21e-4 -0.0324,0.0053 -0.0438,0.0053 v 1.63523 c 0.007,-3.38e-4 0.0153,1.59e-4 0.0217,0 2.24926,-0.0747 4.57289,0.186395 6.52682,1.614768 1.59765,1.167911 2.87195,2.898969 3.65711,5.069163 0.30264,0.836508 0.30575,0.886347 0.07,1.190639 -0.34667,0.447461 -2.06429,1.400189 -3.0622,1.696548 -2.37338,0.555178 -4.79117,0.902427 -7.21361,0.909593 v 2.43748 c 3.40757,0.04278 6.77654,-0.0089 9.85586,-2.069573 1.2185,-0.67694 1.52089,-0.774247 2.52848,-0.838042 3.48795,-0.220871 6.38358,2.280834 8.7797,5.033419 -1.37791,-2.921299 -4.2247,-4.717631 -6.2381,-6.009445 1.70756,-0.228463 3.51584,1.194757 5.32381,2.636781 -1.01808,-1.526569 -2.50891,-2.572182 -3.9021,-3.607674 1.36367,-1.71637 2.44202,-4.154582 3.08406,-6.525537 -1.02788,2.090586 -2.42428,6.020911 -4.85135,5.743697 -2.70171,-0.308605 -4.55066,-6.184616 -7.5636,-7.716177 -1.52555,-0.775494 -3.54697,-1.193474 -5.95812,-1.221297 -0.16074,-0.0019 -0.32137,-0.0015 -0.48557,0 v 1.7e-5 z m -42.214285,0.245288 v 1.589207 c 3.642233,0.674124 7.811112,3.094992 8.770942,5.35023 -2.837269,-2.304685 -6.12231,-4.169751 -9.628353,-4.108486 -2.276075,0.03977 -5.120409,0.719434 -7.340482,2.15645 -1.12039,0.725212 -2.703933,2.352438 -2.729705,2.856512 -0.101321,1.980589 7.491336,3.065025 10.218921,2.92806 3.194492,-0.159 6.413642,-0.333952 9.256527,-1.96225 -1.618838,2.562898 -5.44554,2.938044 -8.54785,3.045582 v 2.427267 c 4.867653,-0.321832 10.848383,-2.896545 10.82698,-6.229145 -0.03281,-5.103048 -7.381304,-7.373758 -10.82698,-8.053427 z m 40.088275,0 c -3.44569,0.679669 -10.79422,2.950379 -10.827,8.053427 -0.0214,3.3326 5.95933,5.907313 10.827,6.229145 v -2.427267 c -3.10232,-0.107487 -6.92902,-0.482684 -8.54786,-3.045582 2.84288,1.628298 6.06204,1.803286 9.25653,1.96225 2.72758,0.136894 10.32024,-0.947471 10.21892,-2.92806 -0.0258,-0.504074 -1.60931,-2.1313 -2.72972,-2.856512 -2.22007,-1.437016 -5.06441,-2.116665 -7.34047,-2.15645 -3.50604,-0.06131 -6.79109,1.803801 -9.62835,4.108486 0.95983,-2.255238 5.1287,-4.676106 8.77095,-5.35023 z m -25.468561,2.64188 c -0.01524,9.917779 -1.337409,16.83624 -6.719304,24.446472 -1.193788,1.688062 -2.609112,3.521155 -2.672834,5.825445 -0.04791,1.73262 0.645899,3.30013 1.53984,4.80345 -0.522146,-1.47669 -0.868534,-2.92032 -0.721799,-4.52751 0.128788,-1.41088 0.977227,-2.39722 3.451501,-5.242898 2.380403,-2.737715 2.828396,-3.390653 3.259041,-2.846292 0.190484,0.240785 0.162118,1.62904 -0.104983,4.14935 -0.38473,3.63025 -0.251476,6.11704 0.41121,7.64974 0.680462,1.57381 2.471899,2.85915 4.908227,3.52594 0.525454,0.14384 1.282053,0.18397 2.073542,0.18397 0.791487,0 1.548076,-0.0401 2.07353,-0.18397 2.436328,-0.66679 4.227756,-1.95213 4.908223,-3.52594 0.662677,-1.5327 0.795947,-4.01949 0.411217,-7.64974 -0.26713,-2.52031 -0.29549,-3.908565 -0.10499,-4.14935 0.43063,-0.544361 0.87862,0.108539 3.25901,2.846292 2.47429,2.845678 3.32272,3.832018 3.45153,5.242898 0.14666,1.60719 -0.19965,3.05082 -0.72181,4.52751 0.89394,-1.50332 1.58778,-3.07083 1.53985,-4.80345 -0.0638,-2.30429 -1.47905,-4.137383 -2.67285,-5.825445 -5.381887,-7.610232 -6.704565,-14.528693 -6.719274,-24.446472 -0.932458,5.208413 -0.801213,12.994551 -0.629944,19.704345 0.108042,4.23512 0.395699,7.010852 0.778671,9.576232 0.363005,2.43168 0.310143,4.28192 -0.419963,4.97718 -1.383603,1.31757 -3.315451,1.79191 -5.1532,1.79362 -1.837749,0.001 -3.768908,-0.47078 -5.153208,-1.79362 -0.729198,-0.69681 -0.782974,-2.5455 -0.41997,-4.97718 0.382988,-2.56538 0.670576,-5.341112 0.778675,-9.576232 0.171268,-6.709794 0.302532,-14.495932 -0.629927,-19.704345 z M 40.581315,70.84036 c -0.199853,0.007 -0.387495,0.0414 -0.555563,0.10222 -0.316503,0.11465 -0.344214,0.69158 0.05246,1.30308 0.451981,0.62744 0.934647,0.92647 1.977299,1.22639 1.020454,0.29354 1.582826,0.30401 1.649196,-0.0766 0.250842,-1.43839 -1.724459,-2.61059 -3.123428,-2.55501 z m 19.904154,0 c -1.39897,-0.0556 -3.374237,1.11662 -3.123417,2.55503 0.0664,0.38066 0.628737,0.37018 1.649187,0.0766 1.04266,-0.2999 1.52533,-0.59892 1.9773,-1.2264 0.39672,-0.61148 0.36901,-1.18848 0.0525,-1.30305 -0.16806,-0.0608 -0.35571,-0.0943 -0.55557,-0.10222 z M 39.487694,88.12253 c -0.227929,0.24225 -0.576987,0.46867 -0.398088,0.79717 0.19462,0.35738 2.112525,0.90634 4.820747,1.05779 4.402168,0.24616 8.843516,0.34038 13.246089,0 2.706877,-0.20927 4.626127,-0.70041 4.820737,-1.05779 0.17892,-0.3285 -0.17015,-0.55492 -0.39808,-0.79717 z m 5.542527,9.80109 c 1.685875,2.31172 2.650906,3.51621 2.64223,5.27868 -0.016,3.3049 -1.241689,3.69684 -1.115511,8.9579 0.101321,4.22456 0.687112,6.97703 1.023644,9.65799 0.800865,6.37976 1.735844,6.47954 2.952815,6.47954 1.21697,0 2.151959,-0.0998 2.952814,-6.47954 0.336543,-2.68096 0.922327,-5.43343 1.023644,-9.65799 0.126199,-5.26106 -1.099448,-5.653 -1.115501,-8.9579 -0.0094,-1.76247 0.956365,-2.96696 2.642217,-5.27868 z"
         id="path2954"
         sodipodi:nodetypes="csssccscccccscsssssssccccscssssssccsccccsccssccscszccsccssccccccssccscccsscccccsccccssssccsscccccssssccccscccccsssccccsssccccsccsccccsssccccsccssssssssssssscsscsssssssccscssccsccscccccssccccscszccccc" />
    </g>
  </g>
</svg>
